<svg id="Group_36230" data-name="Group 36230" xmlns="http://www.w3.org/2000/svg" xmlns:xlink="http://www.w3.org/1999/xlink" width="300.073" height="69" viewBox="0 0 300.073 69">
  <defs>
    <clipPath id="clip-path">
      <rect id="Rectangle_11322" data-name="Rectangle 11322" width="300.073" height="69" fill="none"/>
    </clipPath>
  </defs>
  <g id="Group_36229" data-name="Group 36229" clip-path="url(#clip-path)">
    <path id="Path_47359" data-name="Path 47359" d="M478.78,77.071H365.142a6.27,6.27,0,0,1-6.27-6.27V46.7a6.27,6.27,0,0,1,6.27-6.27H478.78a6.27,6.27,0,0,1,6.27,6.27V70.8a6.27,6.27,0,0,1-6.27,6.27" transform="translate(-184.977 -23.838)" fill="#124c8a"/>
    <path id="Path_47360" data-name="Path 47360" d="M376.189,76.89V54.456H385.7a6.394,6.394,0,0,1,2.843.632,7.33,7.33,0,0,1,2.259,1.706,8.157,8.157,0,0,1,1.5,2.4,7.179,7.179,0,0,1,.537,2.717,7.726,7.726,0,0,1-.884,3.6,7.572,7.572,0,0,1-2.433,2.78,6.265,6.265,0,0,1-3.666,1.074H380.55v7.52Zm4.361-11.344H385.6a2.417,2.417,0,0,0,1.422-.442,3.045,3.045,0,0,0,1.011-1.28,4.582,4.582,0,0,0,.379-1.912,4.271,4.271,0,0,0-.426-1.991,3.016,3.016,0,0,0-1.106-1.232,2.8,2.8,0,0,0-1.469-.411H380.55Z" transform="translate(-193.903 -31.069)" fill="#fff"/>
    <path id="Path_47361" data-name="Path 47361" d="M424.942,76.88a10.343,10.343,0,0,1-4.471-.948,10.554,10.554,0,0,1-3.444-2.575,12.075,12.075,0,0,1-2.228-3.665,11.487,11.487,0,0,1-.79-4.187,11.15,11.15,0,0,1,.837-4.282,12.106,12.106,0,0,1,2.307-3.633,10.939,10.939,0,0,1,3.476-2.528,10.334,10.334,0,0,1,4.408-.932,9.994,9.994,0,0,1,4.44.979,10.685,10.685,0,0,1,3.428,2.623,12.536,12.536,0,0,1,2.212,3.665,11.375,11.375,0,0,1,.79,4.171,11.26,11.26,0,0,1-.822,4.25,11.869,11.869,0,0,1-2.291,3.634,10.731,10.731,0,0,1-3.476,2.512,10.4,10.4,0,0,1-4.376.917m-6.509-11.375a9.015,9.015,0,0,0,.442,2.812,7.68,7.68,0,0,0,1.28,2.417,6.091,6.091,0,0,0,2.054,1.675,6.03,6.03,0,0,0,2.765.616,5.957,5.957,0,0,0,2.812-.648,6.08,6.08,0,0,0,2.054-1.738,8.065,8.065,0,0,0,1.248-2.433,8.873,8.873,0,0,0,.427-2.7,8.62,8.62,0,0,0-.458-2.8,8.027,8.027,0,0,0-1.3-2.4,6.107,6.107,0,0,0-2.054-1.675,6.437,6.437,0,0,0-5.561.031,6.21,6.21,0,0,0-2.038,1.722,7.9,7.9,0,0,0-1.248,2.4,8.839,8.839,0,0,0-.426,2.717" transform="translate(-213.397 -30.901)" fill="#fff"/>
    <path id="Path_47362" data-name="Path 47362" d="M466.109,76.891V54.457h4.361V73.067h11.438v3.823Z" transform="translate(-240.251 -31.069)" fill="#fff"/>
    <rect id="Rectangle_11321" data-name="Rectangle 11321" width="4.361" height="22.434" transform="translate(244.311 23.387)" fill="#fff"/>
    <path id="Path_47363" data-name="Path 47363" d="M520.036,65.316a11.366,11.366,0,0,1,.742-4.029,11.7,11.7,0,0,1,2.164-3.6,10.444,10.444,0,0,1,3.476-2.59,10.88,10.88,0,0,1,4.676-.964,10.2,10.2,0,0,1,5.356,1.359,8.677,8.677,0,0,1,3.365,3.539l-3.349,2.307a5.352,5.352,0,0,0-1.485-2.006,5.536,5.536,0,0,0-1.959-1.043,7.4,7.4,0,0,0-2.053-.3,5.888,5.888,0,0,0-2.86.663,6.385,6.385,0,0,0-2.038,1.738,7.373,7.373,0,0,0-1.216,2.4,9.247,9.247,0,0,0-.395,2.654,8.709,8.709,0,0,0,.474,2.859,7.8,7.8,0,0,0,1.343,2.433,6.422,6.422,0,0,0,2.086,1.675,5.825,5.825,0,0,0,2.67.616,6.838,6.838,0,0,0,2.117-.348,6.006,6.006,0,0,0,1.991-1.106,5.019,5.019,0,0,0,1.422-1.959l3.57,2.054a6.688,6.688,0,0,1-2.165,2.844A10.833,10.833,0,0,1,534.6,76.28a12.012,12.012,0,0,1-3.7.6,9.679,9.679,0,0,1-4.393-1,11.009,11.009,0,0,1-3.428-2.654,12.647,12.647,0,0,1-2.243-3.728,11.465,11.465,0,0,1-.806-4.187" transform="translate(-268.047 -30.901)" fill="#fff"/>
    <path id="Path_47364" data-name="Path 47364" d="M566.508,54.457l5.529,10.553,5.625-10.553h4.708l-8.152,14.6V76.89H569.89v-7.9l-8.121-14.535Z" transform="translate(-289.558 -31.069)" fill="#fff"/>
    <path id="Path_47365" data-name="Path 47365" d="M159.993,76.881a9.19,9.19,0,0,1-4.171-.964,10.737,10.737,0,0,1-3.349-2.606,12.25,12.25,0,0,1-2.2-3.665,11.571,11.571,0,0,1-.774-4.171,12.043,12.043,0,0,1,.774-4.313,11.734,11.734,0,0,1,2.165-3.618,10.333,10.333,0,0,1,3.286-2.5,9.388,9.388,0,0,1,4.139-.916,9.737,9.737,0,0,1,5.4,1.359,8.819,8.819,0,0,1,3.16,3.539l-1.707,1.138a7.012,7.012,0,0,0-2.875-3.065,8.265,8.265,0,0,0-4.013-.98,7.114,7.114,0,0,0-3.365.79,8.184,8.184,0,0,0-2.575,2.117,9.415,9.415,0,0,0-1.628,3,11.04,11.04,0,0,0-.552,3.476,10.134,10.134,0,0,0,.632,3.586,9.428,9.428,0,0,0,1.8,3,8.622,8.622,0,0,0,2.7,2.054,7.467,7.467,0,0,0,3.3.742,7.828,7.828,0,0,0,3.886-1.027,11.994,11.994,0,0,0,3.507-3.176v2.338a9.546,9.546,0,0,1-7.551,3.855m7.2-9.479H162.2V65.7h6.857V76.723H167.2Z" transform="translate(-77.06 -30.901)" fill="#003f79"/>
    <path id="Path_47366" data-name="Path 47366" d="M204.242,83.357a7.966,7.966,0,0,1-3.287-.677,8.049,8.049,0,0,1-2.622-1.857,8.621,8.621,0,0,1-1.722-2.723,8.834,8.834,0,0,1-.616-3.306,8.535,8.535,0,0,1,1.059-4.2,8.17,8.17,0,0,1,2.922-3.057,7.921,7.921,0,0,1,4.234-1.145,7.723,7.723,0,0,1,4.25,1.161,8.343,8.343,0,0,1,2.859,3.06,8.494,8.494,0,0,1,1.042,4.158v.486a1.575,1.575,0,0,1-.031.361H198.239a7.108,7.108,0,0,0,1,3.128,6.323,6.323,0,0,0,2.181,2.168,5.6,5.6,0,0,0,2.922.8,6.047,6.047,0,0,0,3.049-.822,4.524,4.524,0,0,0,2.006-2.148l1.864.505a6.16,6.16,0,0,1-1.548,2.117,7.444,7.444,0,0,1-2.449,1.469,8.614,8.614,0,0,1-3.017.521m-6.067-9.29H210.34a6.718,6.718,0,0,0-.964-3.126,6.094,6.094,0,0,0-2.18-2.111,5.863,5.863,0,0,0-2.954-.766,5.777,5.777,0,0,0-2.939.766,6.1,6.1,0,0,0-2.165,2.126,6.772,6.772,0,0,0-.964,3.111" transform="translate(-101.024 -37.22)" fill="#003f79"/>
    <path id="Path_47367" data-name="Path 47367" d="M242.513,76.731q-.254.095-.79.347a7.138,7.138,0,0,1-1.3.442,6.757,6.757,0,0,1-1.643.189,4.284,4.284,0,0,1-1.722-.349,2.869,2.869,0,0,1-1.28-1.063,3.114,3.114,0,0,1-.474-1.761V62.7h-2.275V61h2.275V55.435h2.148V61h3.792V62.7h-3.792v11.24a1.735,1.735,0,0,0,.648,1.333,2.161,2.161,0,0,0,1.343.444,4.181,4.181,0,0,0,1.611-.3,4.833,4.833,0,0,0,.885-.427Z" transform="translate(-120.115 -31.573)" fill="#003f79"/>
    <path id="Path_47368" data-name="Path 47368" d="M278.925,76.891V58.628L270.8,72.814h-1.39l-8.152-14.187V76.891H259.05V54.457h2.275l8.752,15.356,8.816-15.356h2.243V76.891Z" transform="translate(-133.525 -31.069)" fill="#003f79"/>
    <path id="Path_47369" data-name="Path 47369" d="M314.255,88.366q.442.031.853.047a1.864,1.864,0,0,0,.6-.047,1.3,1.3,0,0,0,.726-.441,5.756,5.756,0,0,0,.821-1.448q.475-1.071,1.328-3.148l-7.172-16.417h2.275l6.035,14.212,5.561-14.212h2.148L318.9,88.088a3.708,3.708,0,0,1-.664,1.118,3.143,3.143,0,0,1-1.09.82,4.142,4.142,0,0,1-1.6.33,3.654,3.654,0,0,1-.585.016c-.2-.011-.438-.038-.711-.079Z" transform="translate(-160.514 -37.489)" fill="#003f79"/>
    <path id="Path_47370" data-name="Path 47370" d="M71.843,47.2A23.591,23.591,0,0,1,48.252,70.789h-23.6V41.414C29.718,36.361,37.4,28.655,42.436,23.6h5.817A23.592,23.592,0,0,1,71.843,47.2" transform="translate(-12.709 -12.166)" fill="#124c8a"/>
  </g>
</svg>
